<svg xmlns="http://www.w3.org/2000/svg" width="22" height="22" viewBox="0 0 22 22" class="" aria-label="Instagram Icon Button">
    <g fill="#fff">
        <path d="M11 0 6.5.1c-1.2.1-2 .2-2.7.5-.7.3-1.4.7-2 1.2A5 5 0 0 0 .5 3.7C.3 4.5.1 5.3.1 6.5L0 11a42.8 42.8 0 0 0 .6 7.2 5 5 0 0 0 1.3 1.9 5 5 0 0 0 1.9 1.3c.7.3 1.5.5 2.7.5l4.5.1 4.5-.1c1.2-.1 2-.2 2.7-.5a5 5 0 0 0 1.9-1.3 5 5 0 0 0 1.3-1.9c.3-.7.5-1.5.5-2.7L22 11l-.1-4.5c-.1-1.2-.2-2-.5-2.7a5 5 0 0 0-1.3-1.9A5 5 0 0 0 18.2.6c-.7-.3-1.5-.5-2.7-.5L11 0zm0 2 4.4.1c1.1 0 1.7.2 2 .4.5.2.9.4 1.3.8s.6.8.8 1.3l.4 2L20 11l-.1 4.4c0 1.1-.2 1.7-.4 2-.2.5-.4.9-.8 1.3s-.8.6-1.3.8l-2 .4-4.4.1H6.6c-1.1 0-1.7-.2-2-.4-.5-.2-.9-.4-1.3-.8s-.6-.8-.8-1.3c-.2-.4-.3-1-.4-2L2 11V6.6c0-1.1.2-1.7.4-2 .2-.6.5-1 .8-1.4l1.3-.8c.4-.2 1-.3 2-.4H11z"></path>
        <path d="M11 14.5c-2 0-3.6-1.6-3.6-3.6C7.4 9 9 7.4 11 7.4S14.6 9 14.6 11a3.7 3.7 0 0 1-3.6 3.5zm0-9C8 5.5 5.5 8 5.5 11S8 16.5 11 16.5s5.5-2.5 5.5-5.5S14 5.5 11 5.5zm6.9-.4c0 .7-.6 1.3-1.3 1.3s-1.3-.6-1.3-1.3c0-.7.6-1.3 1.3-1.3s1.3.6 1.3 1.3"></path>
    </g>
</svg>