<svg xmlns="http://www.w3.org/2000/svg" width="22" height="22" viewBox="0 0 22 22" class="" aria-label="SnapChat Icon Button">
    <path fill="#fff" fill-rule="evenodd" d="M18.5 0A3.5 3.5 0 0 1 22 3.5v15a3.5 3.5 0 0 1-3.5 3.5h-15A3.5 3.5 0 0 1 0 18.5v-15A3.5 3.5 0 0 1 3.5 0h15zm-7.4 3.4h-.3C10.2 3.4 8 3.6 7 6c-.3.7-.3 2.1-.2 3.2v.5s-.1.2-.5.2a2 2 0 0 1-.8-.3.4.4 0 0 0-.2 0c-.2 0-.6.2-.6.4s0 .4.7.7h.2c.4.2 1 .4 1 .7.2.2.1.5 0 .8 0 0-1.1 2.5-3.4 2.9a.2.2 0 0 0-.2.1.3.3 0 0 0 0 .1c.1.3.6.6 2 .8.2 0 .3.2.3.5l.1.4.3.2h.3l1-.2h.6c.4.1.8.4 1.2.7.6.4 1.2.9 2.2.9h.1c1 0 1.6-.5 2.2-.9.5-.3.8-.6 1.3-.6a4 4 0 0 1 1.6 0h.3l.2-.1.1-.4c.1-.3.1-.5.3-.5 1.5-.2 2-.5 2-.8a.2.2 0 0 0-.1-.2c-2.3-.4-3.4-2.8-3.4-3-.2-.2-.2-.5-.1-.7.2-.3.7-.5 1-.6a3.9 3.9 0 0 0 .2 0c.6-.3.8-.6.8-.7 0-.2-.2-.4-.4-.5a.7.7 0 0 0-.3 0 .6.6 0 0 0-.2 0 2 2 0 0 1-.8.3c-.3 0-.5-.2-.5-.2v-.4c.1-1.2.2-2.6-.1-3.3a4.2 4.2 0 0 0-4-2.6z"></path>
</svg>