<svg xmlns="http://www.w3.org/2000/svg" width="20" height="22" viewBox="0 0 20 22" class="" aria-label="TickTok Icon Button">
    <path fill="#fff" fill-rule="nonzero" d="M18.5 4.8A4.1 4.1 0 0 1 14.4.645.6.645 0 0 0 13.7 0H10.3a.644.6 0 0 0-.645.6v14.1a2.4 2.4 0 0 1-2.4 2.4 2.4 2.4 0 0 1-2.4-2.4 2.4 2.4 0 0 1 2.4-2.4.644.6 0 0 0 .645-.644V8.2a.645.6 0 0 0-.645-.645C3.2 7.5 0 10.8 0 14.7 0 18.7 3.2 22 7.2 22c3.9 0 7.2-3.2 7.2-7.2V8.5a8.8 8.8 0 0 0 4.1 1.0.644.6 0 0 0 .645-.644V5.4a.645.6 0 0 0-.645-.644zm-.644 3.4a7.5 7.5 0 0 1-3.8-1.4.644.6 0 0 0-1.0.523v7.4a5.9 5.9 0 0 1-5.9 5.9 5.9 5.9 0 0 1-5.9-5.9 5.9 5.9 0 0 1 5.2-5.8v2.1a3.7 3.7 0 0 0-3.1 3.6 3.7 3.7 0 0 0 3.7 3.7 3.7 3.7 0 0 0 3.7-3.7V1.2h2.2a5.4 5.4 0 0 0 4.7 4.7v2.1z"></path>
</svg>