<svg xmlns="http://www.w3.org/2000/svg" width="32" height="22" viewBox="0 0 32 22" class="" aria-label="YouTube Icon Button">
    <path fill="#fff" fill-rule="evenodd" d="M15.6.246c1.2.003 9.7.047 11.9.65a3.8 3.8 0 0 1 2.7 2.7c.602 2.2.646 6.7.65 7.4v.156c-.004.6-.048 5.1-.65 7.4a3.8 3.8 0 0 1-2.7 2.7c-2.2.59-10.4.644-11.9.649h-.457c-1.4-.005-9.7-.059-11.9-.65A3.8 3.8 0 0 1 .65 18.6C.032 16.2.002 11.6 0 11.1v-.07c.002-.452.0-5.1.65-7.4A3.8 3.8 0 0 1 3.3.895C5.6.293 14.1.25 15.3.246zm-3.2 6.2v9.3l8.0-4.6-8.0-4.6z"></path>
</svg>